<?xml version="1.0" encoding="utf-8"?><svg xml:space="preserve" viewBox="0 0 100 100" y="0" x="0" xmlns="http://www.w3.org/2000/svg" id="Layer_1" version="1.1" width="47px" height="47px" xmlns:xlink="http://www.w3.org/1999/xlink" style="width:100%;height:100%;background-size:initial;background-repeat-y:initial;background-repeat-x:initial;background-position-y:initial;background-position-x:initial;background-origin:initial;background-color:initial;background-clip:initial;background-attachment:initial;animation-play-state:paused" ><g class="ldl-scale" style="transform-origin:50% 50%;transform:rotate(0deg) scale(0.8, 0.8);animation-play-state:paused" ><path fill="#666766" d="M31.8 52.6c2.3 0 4.2-1.9 4.2-4.2V37.2c.1-8.1 6.4-14.6 14-14.6s13.9 6.6 14 14.6v11.2c0 2.3 1.9 4.2 4.2 4.2 2.3 0 4.2-1.9 4.2-4.2V36.1C71.7 23.8 61.9 13.8 50 13.8s-21.7 9.9-22.3 22.4v12.2c-.1 2.3 1.8 4.2 4.1 4.2z" style="fill:rgb(197, 197, 197);animation-play-state:paused" ></path>
<path fill="#333" d="M73.6 42.8H20v37.7c0 5.3 4.3 9.5 9.5 9.5h41c5.3 0 9.5-4.3 9.5-9.5V42.8h-6.4z" style="fill:rgb(197, 197, 197);animation-play-state:paused" ></path>
<path fill="#fff" d="M50 55.3c-3.2 0-5.9 2.6-5.9 5.9 0 2.3 1.4 4.3 3.4 5.3l-.1 8h5.3l-.1-8c2-.9 3.4-2.9 3.4-5.3-.1-3.2-2.8-5.9-6-5.9z" style="fill:rgb(255, 255, 255);animation-play-state:paused" ></path>
<metadata xmlns:d="https://loading.io/stock/" style="animation-play-state:paused" ><d:name style="animation-play-state:paused" >lock</d:name>
<d:tags style="animation-play-state:paused" >unlock,key,door,security,password,lock,web application</d:tags>
<d:license style="animation-play-state:paused" >pro</d:license>
<d:slug style="animation-play-state:paused" >krh5zc</d:slug></metadata></g><!-- generated by https://loading.io/ --></svg>